<?xml version="1.0" standalone="no"?>
<!DOCTYPE svg PUBLIC "-//W3C//DTD SVG 20010904//EN" "http://www.w3.org/TR/2001/REC-SVG-20010904/DTD/svg10.dtd">
<!-- Created using Krita: https://krita.org -->
<svg xmlns="http://www.w3.org/2000/svg" 
    xmlns:xlink="http://www.w3.org/1999/xlink"
    xmlns:krita="http://krita.org/namespaces/svg/krita"
    xmlns:sodipodi="http://sodipodi.sourceforge.net/DTD/sodipodi-0.dtd"
    width="40.3187pt"
    height="40.3187pt"
    viewBox="0 0 40.3187 40.3187">
<defs/>
<path id="shape0" transform="translate(1.0, 1.0)" fill="#fe3521" fill-rule="evenodd" stroke="none" stroke-width="9.35082930443047" stroke-linecap="square" stroke-linejoin="bevel" d="M2.40503 30.3559C5.51611 33.0278 7.49678 34.187 8.34704 33.8334C9.62242 33.303 17.7684 21.6444 18.7558 21.4243C19.7432 21.2041 20.0606 20.4135 21.2655 21.3092C22.4703 22.2048 35.8707 31.8319 37.1343 32.3924C38.398 32.9528 39.2796 33.7284 39.1855 30.516C39.0915 27.3036 39.309 24.4315 37.0873 22.6452C34.8657 20.8588 27.566 16.6908 27.1722 15.9952C26.7784 15.2997 25.7558 14.6242 26.7667 13.7036C27.7776 12.7829 34.1604 7.39889 34.7364 6.15297C35.3124 4.90705 35.042 1.98489 34.9421 1.00417C34.8422 0.0234421 35.1067 -0.366846 33.843 0.418734C32.5794 1.20431 27.6307 3.6261 26.3082 4.837C24.9858 6.04789 22.5115 9.11016 21.2714 9.58551C20.0312 10.0609 18.7088 9.63555 17.6098 9.09014C16.5107 8.54474 11.1976 3.97136 9.86927 3.11573C8.54099 2.2601 6.06662 1.06421 5.17326 0.72396C4.2799 0.383708 4.85001 -0.0966467 3.11031 0.969141C1.37061 2.03493 -0.839276 2.4002 0.324442 4.32662C1.48816 6.25305 6.47804 10.9065 8.21774 12.1124C9.37753 12.9163 11.0095 14.2356 13.1136 16.0703C12.5102 17.6203 11.993 18.5732 11.562 18.9292C11.1309 19.2851 9.48724 21.0208 6.63085 24.1363L6.8248 24.1363C6.62497 24.3231 5.15171 26.3963 2.40503 30.3559Z" sodipodi:nodetypes="czzzzzzzzzzzzzzzzzzzczccc"/>
</svg>
